<svg width="1668" height="1411" viewBox="0 0 1668 1411" fill="none" xmlns="http://www.w3.org/2000/svg">
<g opacity="0.8">
<path opacity="0.3" fill-rule="evenodd" clip-rule="evenodd" d="M898.114 778.833C889.403 794.767 866.38 801.311 847.936 810.548C830.774 819.145 814.1 827.725 794.676 830.648C771.808 834.089 744.03 840.738 727.796 828.628C711.442 816.431 724.103 792.971 719.911 774.883C716.122 758.511 695.267 743.746 704.505 728.01C713.842 712.106 742.795 713.87 761.295 704.391C778.356 695.649 788.533 676.851 808.057 674.95C827.873 673.018 843.63 685.279 858.511 694.909C873.037 704.309 885.567 715.236 892.272 729.444C899.618 745.004 906.91 762.744 898.114 778.833Z" stroke="#EDAE6F" stroke-width="2"/>
<path opacity="0.3" fill-rule="evenodd" clip-rule="evenodd" d="M958.95 790.566C944.878 816.307 907.796 826.902 878.074 841.846C850.418 855.751 823.55 869.627 792.265 874.373C755.436 879.961 710.69 890.735 684.58 871.203C658.283 851.528 678.724 813.632 672.029 784.425C665.971 757.995 632.427 734.182 647.342 708.758C662.418 683.065 709.032 685.878 738.844 670.543C766.337 656.405 782.772 626.042 814.212 622.941C846.124 619.794 871.467 639.571 895.404 655.1C918.769 670.258 938.917 687.886 949.673 710.815C961.457 735.938 973.154 764.574 958.95 790.566Z" stroke="#EDAE6F" stroke-width="2"/>
<path opacity="0.3" fill-rule="evenodd" clip-rule="evenodd" d="M1017.89 801.932C998.632 837.171 947.916 851.694 907.269 872.161C869.448 891.214 832.702 910.223 789.928 916.731C739.572 924.4 678.39 939.169 642.715 912.447C606.78 885.53 634.762 833.647 625.636 793.672C617.378 757.497 571.543 724.92 591.958 690.113C612.592 654.936 676.316 658.759 717.087 637.758C754.689 618.39 777.184 576.822 820.169 572.561C863.8 568.237 898.426 595.295 931.138 616.539C963.066 637.275 990.593 661.394 1005.28 692.779C1021.36 727.155 1037.33 766.347 1017.89 801.932Z" stroke="#EDAE6F" stroke-width="2"/>
<path opacity="0.3" fill-rule="evenodd" clip-rule="evenodd" d="M1071.12 812.199C1047.18 856.02 984.155 874.09 933.64 899.548C886.637 923.235 840.975 946.88 787.819 954.994C725.245 964.535 649.217 982.917 604.9 949.697C560.262 916.24 595.055 851.723 583.734 802.023C573.489 757.047 516.551 716.552 541.931 673.27C567.584 629.528 646.764 634.265 697.434 608.143C744.16 584.054 772.134 532.364 825.546 527.056C879.764 521.664 922.777 555.302 963.417 581.707C1003.08 607.481 1037.27 637.464 1055.51 676.482C1075.47 719.221 1095.29 767.947 1071.12 812.199Z" stroke="#EDAE6F" stroke-width="2"/>
<path opacity="0.3" fill-rule="evenodd" clip-rule="evenodd" d="M1120.55 821.732C1092.25 873.513 1017.8 894.877 958.126 924.975C902.597 952.985 848.644 980.923 785.859 990.52C711.938 1001.81 622.128 1023.54 569.786 984.286C517.068 944.76 558.187 868.509 544.825 809.778C532.736 756.63 465.489 708.783 495.484 657.631C525.793 605.934 619.329 611.522 679.19 580.643C734.392 552.173 767.45 491.08 830.545 484.799C894.589 478.424 945.389 518.166 993.385 549.365C1040.23 579.817 1080.61 615.243 1102.14 661.351C1125.72 711.856 1149.11 769.434 1120.55 821.732Z" stroke="#EDAE6F" stroke-width="2"/>
<path opacity="0.3" fill-rule="evenodd" clip-rule="evenodd" d="M1171.88 831.632C1139.07 891.694 1052.75 916.469 983.556 951.387C919.171 983.867 856.616 1016.28 783.823 1027.41C698.125 1040.51 593.998 1065.73 533.325 1020.22C472.212 974.373 519.895 885.942 504.419 817.832C490.415 756.197 412.461 700.716 447.247 641.391C482.404 581.436 590.836 587.904 660.241 552.088C724.246 519.06 762.589 448.212 835.735 440.918C909.984 433.52 968.87 479.605 1024.5 515.781C1078.81 551.095 1125.62 592.171 1150.57 645.641C1177.89 704.206 1205.01 770.978 1171.88 831.632Z" stroke="#EDAE6F" stroke-width="2"/>
<path opacity="0.3" fill-rule="evenodd" clip-rule="evenodd" d="M1234.61 843.726C1196.28 913.906 1095.46 942.867 1014.63 983.652C939.427 1021.61 866.36 1059.49 781.336 1072.5C681.24 1087.82 559.615 1117.28 488.757 1064.11C417.387 1010.56 473.097 907.248 455.035 827.674C438.688 755.665 347.652 690.854 388.292 621.54C429.363 551.491 556.011 559.038 637.082 517.186C711.845 478.592 756.637 395.815 842.077 387.289C928.8 378.633 997.571 432.474 1062.54 474.73C1125.96 515.979 1180.63 563.968 1209.76 626.436C1241.67 694.856 1273.32 772.864 1234.61 843.726Z" stroke="#EDAE6F" stroke-width="2"/>
<path opacity="0.3" fill-rule="evenodd" clip-rule="evenodd" d="M1303.05 856.924C1258.7 938.129 1142.05 971.657 1048.54 1018.87C961.526 1062.79 876.99 1106.63 778.623 1121.69C662.818 1139.42 522.106 1173.53 440.139 1112.01C357.58 1050.05 422.046 930.491 401.16 838.412C382.26 755.089 276.948 680.099 323.975 599.887C371.502 518.825 518.017 527.546 611.817 479.112C698.315 434.447 750.148 338.655 848.996 328.783C949.327 318.762 1028.88 381.053 1104.04 429.949C1177.41 477.676 1240.65 533.203 1274.33 605.487C1311.23 684.657 1347.84 774.92 1303.05 856.924Z" stroke="#EDAE6F" stroke-width="2"/>
<path opacity="0.3" fill-rule="evenodd" clip-rule="evenodd" d="M1369.59 869.754C1319.37 961.693 1187.34 999.65 1081.5 1053.09C983.015 1102.83 887.327 1152.46 775.985 1169.52C644.909 1189.59 485.638 1228.21 392.873 1158.58C299.433 1088.44 372.413 953.088 348.782 848.852C327.399 754.526 208.212 669.64 261.445 578.835C315.248 487.065 481.083 496.929 587.254 442.094C685.162 391.526 743.84 283.083 855.722 271.901C969.283 260.552 1059.32 331.063 1144.38 386.409C1227.42 440.434 1298.99 503.29 1337.11 585.115C1378.87 674.741 1420.3 776.919 1369.59 869.754Z" stroke="#EDAE6F" stroke-width="2"/>
<path opacity="0.3" fill-rule="evenodd" clip-rule="evenodd" d="M1430.43 881.489C1374.86 983.233 1228.76 1025.24 1111.64 1084.39C1002.66 1139.43 896.772 1194.36 773.575 1213.24C628.536 1235.46 452.299 1278.2 349.657 1201.15C246.271 1123.54 327.034 973.749 300.895 858.396C277.242 754.011 145.363 660.077 204.277 559.586C263.817 458.027 447.314 468.936 564.797 408.248C673.137 352.283 738.072 232.273 861.872 219.894C987.53 207.328 1087.15 285.356 1181.27 346.605C1273.14 406.388 1352.33 475.943 1394.52 566.493C1440.71 665.673 1486.54 778.752 1430.43 881.489Z" stroke="#EDAE6F" stroke-width="2"/>
<path opacity="0.3" fill-rule="evenodd" clip-rule="evenodd" d="M1495.07 893.952C1433.81 1006.12 1272.77 1052.43 1143.66 1117.64C1023.53 1178.33 906.816 1238.88 771.01 1259.69C611.142 1284.2 416.874 1331.33 303.739 1246.38C189.785 1160.83 278.817 995.698 250.014 868.54C223.947 753.468 78.5878 649.924 143.534 539.138C209.169 427.177 411.437 439.197 540.933 372.292C660.36 310.59 731.944 178.289 868.406 164.638C1006.92 150.782 1116.72 236.797 1220.46 304.311C1321.72 370.214 1409.01 446.884 1455.5 546.708C1506.41 656.041 1556.93 780.697 1495.07 893.952Z" stroke="#EDAE6F" stroke-width="2"/>
<path opacity="0.3" fill-rule="evenodd" clip-rule="evenodd" d="M1565.41 907.517C1497.96 1031.02 1320.65 1082.02 1178.51 1153.83C1046.24 1220.65 917.734 1287.33 768.223 1310.25C592.206 1337.24 378.324 1389.13 253.771 1295.61C128.314 1201.41 226.348 1019.59 194.642 879.574C165.951 752.871 5.91979 638.859 77.431 516.879C149.701 393.601 372.386 406.83 514.969 333.157C646.452 265.218 725.275 119.541 875.516 104.506C1028.01 89.2452 1148.9 183.949 1263.11 258.286C1374.6 330.846 1470.69 415.268 1521.87 525.176C1577.92 645.558 1633.52 782.815 1565.41 907.517Z" stroke="#EDAE6F" stroke-width="2"/>
</g>
</svg>
